<?xml version="1.0" encoding="utf-8"?>
<!-- Generator: Adobe Illustrator 25.4.1, SVG Export Plug-In . SVG Version: 6.00 Build 0)  -->
<svg version="1.1" id="Layer_1" xmlns="http://www.w3.org/2000/svg" xmlns:xlink="http://www.w3.org/1999/xlink" x="0px" y="0px"
	 viewBox="0 0 212 212" style="enable-background:new 0 0 212 212;" xml:space="preserve">
<style type="text/css">
	.st0{fill:#FF9933;}
	.st1{fill:#FFFFFF;}
	.st2{fill:#128807;}
	.st3{fill:#000088;}
</style>
<g>
	<path class="st0" d="M12.1,35.5H200v47H12.1V35.5z"/>
	<path class="st1" d="M12.1,82.5H200v47H12.1V82.5z"/>
	<path class="st2" d="M12.1,129.5H200v47H12.1V129.5z"/>
	<g transform="matrix(3.2 0 0 3.2 320 240)">
		<circle class="st3" cx="-66.9" cy="-41.9" r="5.9"/>
		<circle class="st1" cx="-66.9" cy="-41.9" r="5.1"/>
		<circle class="st3" cx="-66.9" cy="-41.9" r="1"/>
		<g id="d">
			<g id="c">
				<g id="b">
					<g id="a">
						<circle class="st3" cx="-61.8" cy="-41.2" r="0.3"/>
						<path class="st3" d="M-66.9-36.7l0.2-3.1l-0.2-1.5l-0.2,1.5L-66.9-36.7z"/>
					</g>
					<g transform="rotate(15)">
						<g id="a_00000036233029742604540720000004817040870301158787_">
							<circle class="st3" cx="-62.1" cy="-39.9" r="0.3"/>
							<path class="st3" d="M-68.2-36.9l1-2.9l0.2-1.5l-0.6,1.4L-68.2-36.9z"/>
						</g>
					</g>
				</g>
				<g transform="rotate(30)">
					<g id="b_00000155129106833160072750000010630501292850442137_">
						<g id="a_00000093160782115581916130000012639121899890737593_">
							<circle class="st3" cx="-62.8" cy="-38.7" r="0.3"/>
							<path class="st3" d="M-69.4-37.4l1.7-2.6l0.6-1.4l-0.9,1.2L-69.4-37.4z"/>
						</g>
						<g transform="rotate(15)">
							<g id="a_00000091708633339162789740000009963043540315009446_">
								<circle class="st3" cx="-63.7" cy="-37.8" r="0.3"/>
								<path class="st3" d="M-70.5-38.2l2.3-2.1l0.9-1.2l-1.2,0.9L-70.5-38.2z"/>
							</g>
						</g>
					</g>
				</g>
			</g>
			<g transform="rotate(60)">
				<g id="c_00000177467503622047686920000008630914555921656242_">
					<g id="b_00000028314267973832764440000015236587927231941814_">
						<g id="a_00000177449272352134173530000001764491595787337915_">
							<ellipse transform="matrix(0.866 -0.5 0.5 0.866 9.8551 -37.4205)" class="st3" cx="-64.9" cy="-37.1" rx="1" ry="1"/>
							<path class="st3" d="M-71.3-39.3l2.8-1.4l1.2-0.9l-1.4,0.6L-71.3-39.3z"/>
						</g>
						<g transform="rotate(15)">
							<g id="a_00000176009130599170927520000018374027745999541941_">
								
									<ellipse transform="matrix(0.9659 -0.2588 0.2588 0.9659 7.2688 -18.3877)" class="st3" cx="-66.2" cy="-36.8" rx="1" ry="1"/>
								<path class="st3" d="M-71.8-40.5l3-0.6l1.4-0.6l-1.5,0.2L-71.8-40.5z"/>
							</g>
						</g>
					</g>
					<g transform="rotate(30)">
						<g id="b_00000075877151443582162810000002340949841456430980_">
							<g id="a_00000103232494676500534060000009349184365151776167_">
								<circle class="st3" cx="-67.5" cy="-36.8" r="0.3"/>
								<path class="st3" d="M-72-41.9l3.1,0.2l1.5-0.2l-1.5-0.2L-72-41.9z"/>
							</g>
							<g transform="rotate(15)">
								<g id="a_00000063617767345512585770000008854146133678117299_">
									
										<ellipse transform="matrix(0.2588 -0.9659 0.9659 0.2588 -15.1574 -93.9536)" class="st3" cx="-68.8" cy="-37.1" rx="1" ry="1"/>
									<path class="st3" d="M-71.8-43.2l2.9,1l1.5,0.2l-1.4-0.6L-71.8-43.2z"/>
								</g>
							</g>
						</g>
					</g>
				</g>
			</g>
		</g>
		<g transform="rotate(120)">
			<g id="d_00000166673320967570730160000000382668673264701057_">
				<g id="c_00000057117792771875066110000016572415479924912799_">
					<g id="b_00000003106358419980160730000017422030243944636810_">
						<g id="a_00000147930602499785402370000004778514856134371209_">
							<ellipse transform="matrix(0.5 -0.866 0.866 0.5 -2.2643 -79.5218)" class="st3" cx="-70" cy="-37.8" rx="1" ry="1"/>
							<path class="st3" d="M-71.3-44.4l2.6,1.7l1.4,0.6l-1.2-0.9L-71.3-44.4z"/>
						</g>
						<g transform="rotate(15)">
							<g id="a_00000004524196874327026990000007431959282128434604_">
								
									<ellipse transform="matrix(0.7071 -0.7071 0.7071 0.7071 6.5696 -61.5396)" class="st3" cx="-71" cy="-38.7" rx="1" ry="1"/>
								<path class="st3" d="M-70.5-45.5l2.1,2.3l1.2,0.9l-0.9-1.2L-70.5-45.5z"/>
							</g>
						</g>
					</g>
					<g transform="rotate(30)">
						<g id="b_00000020375383260543915870000001349412489340217484_">
							<g id="a_00000123434533089822167190000013898189107439869593_">
								<ellipse transform="matrix(0.866 -0.5 0.5 0.866 10.3574 -41.1456)" class="st3" cx="-71.6" cy="-39.9" rx="1" ry="1"/>
								<path class="st3" d="M-69.4-46.3l1.4,2.8l0.9,1.2l-0.6-1.4L-69.4-46.3z"/>
							</g>
							<g transform="rotate(15)">
								<g id="a_00000093875594529238444110000002205793589447573949_">
									<ellipse transform="matrix(0.9659 -0.2588 0.2588 0.9659 8.21 -20.0388)" class="st3" cx="-72" cy="-41.2" rx="1" ry="1"/>
									<path class="st3" d="M-68.2-46.8l0.6,3l0.6,1.4l-0.2-1.5L-68.2-46.8z"/>
								</g>
							</g>
						</g>
					</g>
				</g>
				<g transform="rotate(60)">
					<g id="c_00000132085828213657786330000015940084415550696894_">
						<g id="b_00000080192750731719937920000015924980061570859430_">
							<g id="a_00000073683214191166758090000003137272519274755208_">
								<circle class="st3" cx="-72" cy="-42.5" r="0.3"/>
								<path class="st3" d="M-66.9-47l-0.2,3.1l0.2,1.5l0.2-1.5L-66.9-47z"/>
							</g>
							<g transform="rotate(15)">
								<g id="a_00000004509555138057876170000003182013448258604421_">
									
										<ellipse transform="matrix(0.2588 -0.9659 0.9659 0.2588 -10.761 -101.6241)" class="st3" cx="-71.6" cy="-43.8" rx="1" ry="1"/>
									<path class="st3" d="M-65.5-46.8l-1,2.9l-0.2,1.5l0.6-1.4L-65.5-46.8z"/>
								</g>
							</g>
						</g>
						<g transform="rotate(30)">
							<g id="b_00000167368657693258767610000017057509396577096082_">
								<g id="a_00000072993412937211920050000007207328442032507794_">
									<ellipse transform="matrix(0.5 -0.866 0.866 0.5 3.4711 -83.9879)" class="st3" cx="-71" cy="-45" rx="1" ry="1"/>
									<path class="st3" d="M-64.3-46.3l-1.7,2.6l-0.6,1.4l0.9-1.2L-64.3-46.3z"/>
								</g>
								<g transform="rotate(15)">
									<g id="a_00000013152093217171553880000010427223937604533637_">
										
											<ellipse transform="matrix(0.7071 -0.7071 0.7071 0.7071 12.0244 -62.9706)" class="st3" cx="-70" cy="-46" rx="1" ry="1"/>
										<path class="st3" d="M-63.2-45.5l-2.3,2.1l-0.9,1.2l1.2-0.9L-63.2-45.5z"/>
									</g>
								</g>
							</g>
						</g>
					</g>
				</g>
			</g>
		</g>
		<g transform="rotate(-120)">
			<g id="d_00000078046682939699548900000007677566221818234281_">
				<g id="c_00000032650928867073350160000017206385115625893258_">
					<g id="b_00000121240142779304060930000000383359637946297237_">
						<g id="a_00000064321922870764103020000007506102082012268452_">
							<ellipse transform="matrix(0.866 -0.5 0.5 0.866 14.0826 -40.6432)" class="st3" cx="-68.8" cy="-46.6" rx="1" ry="1"/>
							<path class="st3" d="M-62.4-44.4l-2.8,1.4l-1.2,0.9l1.4-0.6L-62.4-44.4z"/>
						</g>
						<g transform="rotate(15)">
							<g id="a_00000044168730145798989450000015871204681730581379_">
								
									<ellipse transform="matrix(0.9659 -0.2588 0.2588 0.9659 9.8645 -19.0718)" class="st3" cx="-67.5" cy="-47" rx="1" ry="1"/>
								<path class="st3" d="M-61.9-43.2l-3,0.6l-1.4,0.6l1.5-0.2L-61.9-43.2z"/>
							</g>
						</g>
					</g>
					<g transform="rotate(30)">
						<g id="b_00000058570997804330763940000002340667155684511875_">
							<g id="a_00000003811270856339274130000003800884570641672345_">
								<circle class="st3" cx="-66.2" cy="-47" r="0.3"/>
								<path class="st3" d="M-61.7-41.9l-3.1-0.2l-1.5,0.2l1.5,0.2L-61.7-41.9z"/>
							</g>
							<g transform="rotate(15)">
								<g id="a_00000045606024918283792040000011763423594030325436_">
									
										<ellipse transform="matrix(0.2588 -0.9659 0.9659 0.2588 -3.0905 -97.2277)" class="st3" cx="-64.9" cy="-46.6" rx="1" ry="1"/>
									<path class="st3" d="M-61.9-40.5l-2.9-1l-1.5-0.2l1.4,0.6L-61.9-40.5z"/>
								</g>
							</g>
						</g>
					</g>
				</g>
				<g transform="rotate(60)">
					<g id="c_00000149344682305569538730000007651998944007937191_">
						<g id="b_00000182492941393893542780000012389462701237740710_">
							<g id="a_00000086666334467282589250000003910159719386865319_">
								<circle class="st3" cx="-63.7" cy="-46" r="0.3"/>
								<path class="st3" d="M-62.4-39.3L-65-41l-1.4-0.6l1.2,0.9L-62.4-39.3z"/>
							</g>
							<g transform="rotate(15)">
								<g id="a_00000116934089818680707330000011915773102179721358_">
									<circle class="st3" cx="-62.8" cy="-45" r="0.3"/>
									<path class="st3" d="M-63.2-38.2l-2.1-2.3l-1.2-0.9l0.9,1.2L-63.2-38.2z"/>
								</g>
							</g>
						</g>
						<g transform="rotate(30)">
							<g id="b_00000108303369927790759750000010203040510516132231_">
								<g id="a_00000093880145773608179980000017869257625331772831_">
									<circle class="st3" cx="-62.1" cy="-43.8" r="0.3"/>
									<path class="st3" d="M-64.3-37.4l-1.4-2.8l-0.9-1.2L-66-40L-64.3-37.4z"/>
								</g>
								<g transform="rotate(15)">
									<g id="a_00000013897780755590005320000005874729865657015690_">
										<circle class="st3" cx="-61.8" cy="-42.5" r="0.3"/>
										<path class="st3" d="M-65.5-36.9l-0.6-3l-0.6-1.4l0.2,1.5L-65.5-36.9z"/>
									</g>
								</g>
							</g>
						</g>
					</g>
				</g>
			</g>
		</g>
	</g>
</g>
</svg>
