<?xml version="1.0" encoding="utf-8"?>
<!-- Generator: Adobe Illustrator 25.4.1, SVG Export Plug-In . SVG Version: 6.00 Build 0)  -->
<svg version="1.1" id="Layer_1" xmlns="http://www.w3.org/2000/svg" xmlns:xlink="http://www.w3.org/1999/xlink" x="0px" y="0px"
	 viewBox="0 0 212 212" style="enable-background:new 0 0 212 212;" xml:space="preserve">
<style type="text/css">
	.st0{clip-path:url(#SVGID_00000078045792977378055870000018124749379470912903_);}
	.st1{fill-rule:evenodd;clip-rule:evenodd;fill:#BD3D44;}
	.st2{fill-rule:evenodd;clip-rule:evenodd;fill:#FFFFFF;}
	.st3{fill-rule:evenodd;clip-rule:evenodd;fill:#192F5D;}
</style>
<g>
	<defs>
		<rect id="SVGID_1_" x="12.1" y="35.6" width="187.7" height="140.8"/>
	</defs>
	<clipPath id="SVGID_00000163053301059990692080000013430071908666329491_">
		<use xlink:href="#SVGID_1_"  style="overflow:visible;"/>
	</clipPath>
	<g transform="scale(.9375)" style="clip-path:url(#SVGID_00000163053301059990692080000013430071908666329491_);">
		<g>
			<path class="st1" d="M12.9,38h285.4v11.6H12.9V38z M12.9,61.1h285.4v11.6H12.9V61.1z M12.9,84.2h285.4v11.6H12.9V84.2z
				 M12.9,107.3h285.4v11.6H12.9V107.3z M12.9,130.4h285.4V142H12.9V130.4z M12.9,153.5h285.4V165H12.9V153.5z M12.9,176.6h285.4
				v11.6H12.9V176.6z"/>
			<path class="st2" d="M12.9,49.5h285.4v11.6H12.9V49.5z M12.9,72.6h285.4v11.5H12.9V72.6z M12.9,95.7h285.4v11.6H12.9V95.7z
				 M12.9,118.8h285.4v11.6H12.9V118.8z M12.9,142h285.4v11.6H12.9V142z M12.9,165h285.4v11.6H12.9V165z"/>
		</g>
		<path class="st3" d="M12.9,38h114.1v80.9H12.9V38z"/>
		<path class="st2" d="M22.4,41.4l1.1,3.2h3.3l-2.7,2l1,3.2l-2.7-2l-2.7,2l1-3.2l-2.7-2h3.4L22.4,41.4z M41.5,41.4l1,3.2h3.4l-2.7,2
			l1,3.2l-2.7-2l-2.7,2l1-3.2l-2.7-2h3.3L41.5,41.4z M60.5,41.4l1.1,3.2h3.3l-2.7,2l1,3.2l-2.7-2l-2.7,2l1-3.2l-2.7-2h3.4L60.5,41.4
			z M79.5,41.4l1,3.2h3.4l-2.7,2l1.1,3.2l-2.7-2l-2.7,2l1.1-3.2l-2.7-2h3.3L79.5,41.4z M98.5,41.4l1.1,3.2h3.3l-2.7,2l1,3.2l-2.7-2
			l-2.7,2l1-3.2l-2.7-2h3.3L98.5,41.4z M117.6,41.4l1,3.2h3.4l-2.7,2l1.1,3.2l-2.7-2l-2.7,2l1.1-3.2l-2.7-2h3.4L117.6,41.4z
			 M32,49.5l1,3.2h3.4l-2.7,2l1,3.2l-2.6-2l-2.7,2l1-3.2l-2.6-2h3.3L32,49.5z M51,49.5l1.1,3.2h3.3l-2.7,2l1.1,3.2l-2.7-2l-2.7,2
			l1.1-3.2l-2.7-2H50L51,49.5z M70,49.5l1,3.2h3.4l-2.7,2l1,3.2l-2.7-2l-2.7,2l1-3.2l-2.7-2H69L70,49.5z M89,49.5l1.1,3.2h3.3
			l-2.7,2l1.1,3.2l-2.7-2l-2.7,2l1-3.2l-2.7-2H88L89,49.5z M108.1,49.5l1,3.2h3.4l-2.7,2l1,3.2l-2.7-2l-2.7,2l1-3.2l-2.7-2h3.3
			L108.1,49.5z M22.4,57.6l1.1,3.3h3.3l-2.7,2l1,3.2l-2.7-2l-2.7,2l1-3.2l-2.7-2h3.4L22.4,57.6z M41.5,57.6l1,3.2h3.4l-2.7,2l1,3.2
			l-2.7-2l-2.7,2l1-3.2l-2.7-2h3.3L41.5,57.6z M60.5,57.6l1.1,3.2h3.3l-2.7,2l1,3.2l-2.7-2l-2.7,2l1-3.2l-2.7-2h3.4L60.5,57.6z
			 M79.5,57.6l1,3.2h3.4l-2.7,2l1.1,3.2l-2.7-2l-2.7,2l1.1-3.2l-2.7-2h3.3L79.5,57.6z M98.5,57.6l1.1,3.2h3.3l-2.7,2l1,3.2l-2.7-2
			l-2.7,2l1-3.2l-2.7-2h3.3L98.5,57.6z M117.6,57.6l1,3.2h3.4l-2.7,2l1.1,3.2l-2.7-2l-2.7,2l1.1-3.2l-2.7-2h3.4L117.6,57.6z
			 M32,65.7l1,3.2h3.4l-2.7,2l1,3.2l-2.7-2l-2.7,2l1-3.2l-2.7-2h3.3L32,65.7z M51,65.7l1.1,3.2h3.3l-2.7,2l1.1,3.2l-2.7-2l-2.7,2
			l1.1-3.2l-2.7-2H50L51,65.7z M70,65.7l1,3.2h3.4l-2.7,2l1,3.2l-2.7-2l-2.7,2l1-3.2l-2.7-2H69L70,65.7z M89,65.7l1.1,3.2h3.3
			l-2.7,2l1,3.2l-2.7-2l-2.7,2l1-3.2l-2.7-2H88L89,65.7z M108.1,65.7l1,3.2h3.4l-2.7,2l1,3.2l-2.7-2l-2.7,2l1-3.2l-2.7-2h3.3
			L108.1,65.7z M22.4,73.8l1.1,3.2h3.3l-2.7,2l1,3.2l-2.7-2l-2.7,2l1-3.2L18,77h3.4L22.4,73.8z M41.5,73.8l1,3.2h3.4l-2.7,2l1,3.2
			l-2.7-2l-2.7,2l1-3.2l-2.7-2h3.3L41.5,73.8z M60.5,73.8l1.1,3.2h3.3l-2.7,2l1,3.2l-2.7-2l-2.7,2l1-3.2l-2.7-2h3.4L60.5,73.8z
			 M79.5,73.8l1,3.2h3.4l-2.7,2l1.1,3.2l-2.7-2l-2.7,2l1.1-3.2l-2.7-2h3.3L79.5,73.8z M98.5,73.8l1.1,3.2h3.3l-2.7,2l1,3.2l-2.7-2
			l-2.7,2l1-3.2l-2.7-2h3.3L98.5,73.8z M117.6,73.8l1,3.2h3.4l-2.7,2l1.1,3.2l-2.7-2l-2.7,2l1.1-3.2l-2.7-2h3.4L117.6,73.8z
			 M32,81.9l1,3.2h3.4l-2.7,2l1,3.2l-2.7-2l-2.7,2l1-3.2l-2.7-2h3.3L32,81.9z M51,81.9l1.1,3.2h3.3l-2.7,2l1.1,3.2l-2.7-2l-2.7,2
			l1.1-3.2l-2.7-2H50L51,81.9z M70,81.9l1,3.2h3.4l-2.7,2l1,3.2l-2.7-2l-2.7,2l1-3.2l-2.7-2H69L70,81.9z M89,81.9l1.1,3.2h3.3
			l-2.7,2l1,3.2l-2.7-2l-2.7,2l1-3.2l-2.7-2H88L89,81.9z M108.1,81.9l1,3.2h3.4l-2.7,2l1,3.2l-2.7-2l-2.7,2l1-3.2l-2.7-2h3.3
			L108.1,81.9z M22.4,90l1.1,3.2h3.3l-2.7,2l1,3.2l-2.7-2l-2.7,2l1-3.2l-2.7-2h3.4L22.4,90z M41.5,90l1,3.2h3.4l-2.7,2l1.1,3.2
			l-2.7-2l-2.7,2l1.1-3.2l-2.7-2h3.3L41.5,90z M60.5,90l1.1,3.2h3.3l-2.7,2l1,3.2l-2.7-2l-2.7,2l1-3.2l-2.7-2h3.4L60.5,90z M79.5,90
			l1,3.2h3.4l-2.7,2l1.1,3.2l-2.7-2l-2.7,2l1.1-3.2l-2.7-2h3.3L79.5,90z M98.5,90l1.1,3.2h3.3l-2.7,2l1,3.2l-2.7-2l-2.7,2l1-3.2
			l-2.7-2h3.3L98.5,90z M117.6,90l1,3.2h3.4l-2.7,2l1.1,3.2l-2.7-2l-2.7,2l1.1-3.2l-2.7-2h3.4L117.6,90z M32,98l1,3.2h3.4l-2.7,2
			l1,3.2l-2.7-2l-2.7,2l1-3.2l-2.7-2h3.3L32,98z M51,98l1.1,3.2h3.3l-2.7,2l1.1,3.2l-2.7-2l-2.7,2l1.1-3.2l-2.7-2H50L51,98z M70,98
			l1,3.2h3.4l-2.7,2l1,3.2l-2.7-2l-2.7,2l1-3.2l-2.7-2H69L70,98z M89,98l1.1,3.2h3.3l-2.7,2l1,3.2l-2.7-2l-2.7,2l1-3.2l-2.7-2H88
			L89,98z M108.1,98l1,3.2h3.4l-2.7,2l1,3.2l-2.7-2l-2.7,2l1-3.2l-2.7-2h3.3L108.1,98z M22.4,106.1l1.1,3.2h3.3l-2.7,2l1,3.2l-2.7-2
			l-2.7,2l1-3.2l-2.7-2h3.4L22.4,106.1z M41.5,106.1l1,3.2h3.4l-2.7,2l1.1,3.2l-2.7-2l-2.7,2l1.1-3.2l-2.7-2h3.3L41.5,106.1z
			 M60.5,106.1l1.1,3.2h3.3l-2.6,2l1,3.2l-2.7-2l-2.7,2l1-3.2l-2.7-2h3.4L60.5,106.1z M79.5,106.1l1,3.2h3.4l-2.7,2l1.1,3.2l-2.7-2
			l-2.7,2l1.1-3.2l-2.7-2h3.3L79.5,106.1z M98.5,106.1l1.1,3.2h3.3l-2.7,2l1,3.2l-2.7-2l-2.7,2l1-3.2l-2.7-2h3.3L98.5,106.1z
			 M117.6,106.1l1,3.2h3.4l-2.7,2l1.1,3.2l-2.7-2l-2.7,2l1.1-3.2l-2.7-2h3.4L117.6,106.1z"/>
	</g>
</g>
</svg>
